<svg width="24" height="24" viewBox="0 0 24 24" fill="none" xmlns="http://www.w3.org/2000/svg">
<g clip-path="url(#clip0_196_5248)">
<path d="M13.7897 12.0002L21.7544 4.0364C22.2488 3.54199 22.2488 2.74041 21.7544 2.24605C21.26 1.75164 20.4584 1.75164 19.9641 2.24605L12.0002 10.2107L4.0364 2.24605C3.54199 1.75164 2.74041 1.75164 2.24605 2.24605C1.75168 2.74045 1.75164 3.54203 2.24605 4.0364L10.2107 12.0002L2.24605 19.9641C1.75164 20.4585 1.75164 21.2601 2.24605 21.7544C2.74045 22.2488 3.54203 22.2488 4.0364 21.7544L12.0002 13.7897L19.964 21.7544C20.4584 22.2488 21.26 22.2488 21.7544 21.7544C22.2488 21.26 22.2488 20.4584 21.7544 19.9641L13.7897 12.0002Z" fill="#566575"/>
</g>
<defs>
<clipPath id="clip0_196_5248">
<rect width="20.25" height="20.25" fill="white" transform="translate(1.875 1.875)"/>
</clipPath>
</defs>
</svg>
