<svg width="20" height="21" viewBox="0 0 20 21" fill="none" xmlns="http://www.w3.org/2000/svg">
<g clip-path="url(#clip0_126_2554)">
<path fill-rule="evenodd" clip-rule="evenodd" d="M7.53516 12.4534C8.23048 12.7851 8.98464 12.9759 9.75409 13.0146C10.5235 13.0534 11.293 12.9393 12.0182 12.679C12.7433 12.4187 13.4097 12.0174 13.9788 11.4981C14.548 10.9789 15.0086 10.352 15.3342 9.65378C15.6598 8.95553 15.8438 8.1997 15.8757 7.42994C15.9075 6.66017 15.7866 5.89172 15.5198 5.16895C15.2531 4.44618 14.8458 3.78341 14.3215 3.21891C13.7972 2.65441 13.1663 2.19935 12.4652 1.88002C11.0654 1.24251 9.47054 1.18362 8.0276 1.71616C6.58465 2.24871 5.41043 3.32959 4.76045 4.72358C4.11048 6.11758 4.03736 7.71187 4.55701 9.15951C5.07666 10.6071 6.14702 11.791 7.53516 12.4534ZM3.856 12.4559C3.986 12.1759 4.36766 12.1292 4.581 12.3525C5.28047 13.0852 6.1215 13.6681 7.05304 14.0659C7.98459 14.4637 8.98724 14.6681 10.0002 14.6667C11.0129 14.668 12.0154 14.4635 12.9468 14.0657C13.8782 13.6679 14.7191 13.0851 15.4185 12.3525C15.6327 12.1292 16.0135 12.1759 16.1443 12.4559L18.0335 16.5067C18.0823 16.6116 18.1017 16.7279 18.0897 16.843C18.0776 16.9581 18.0346 17.0678 17.9652 17.1604C17.8958 17.253 17.8025 17.325 17.6954 17.3689C17.5883 17.4127 17.4713 17.4266 17.3568 17.4092L14.5785 16.9842L13.1177 19.3859C13.0575 19.4848 12.9716 19.5656 12.8691 19.6195C12.7667 19.6735 12.6515 19.6987 12.5359 19.6924C12.4202 19.686 12.3085 19.6484 12.2125 19.5836C12.1166 19.5188 12.04 19.4291 11.991 19.3242L10.0002 15.0534L8.0085 19.325C7.9594 19.4297 7.88285 19.5192 7.78698 19.5839C7.69111 19.6486 7.5795 19.6861 7.46401 19.6924C7.34853 19.6987 7.23349 19.6736 7.13113 19.6198C7.02876 19.566 6.9429 19.4854 6.88266 19.3867L5.42183 16.9859L2.64266 17.4109C2.52813 17.4285 2.41095 17.4146 2.30367 17.3708C2.1964 17.327 2.10305 17.2548 2.03363 17.162C1.96421 17.0692 1.92132 16.9593 1.90955 16.844C1.89779 16.7287 1.91758 16.6124 1.96683 16.5075L3.856 12.4559Z" fill="currentColor"/>
</g>
<defs>
<clipPath id="clip0_126_2554">
<rect width="20" height="20" fill="white" transform="translate(0 0.5)"/>
</clipPath>
</defs>
</svg>
