<svg width="20" height="20" viewBox="0 0 20 20" fill="none" xmlns="http://www.w3.org/2000/svg">
<g clip-path="url(#clip0_300_2440)">
<path d="M10 0.625C4.81844 0.625 0.625 4.81797 0.625 10C0.625 15.1815 4.81797 19.375 10 19.375C15.1816 19.375 19.375 15.182 19.375 10C19.375 4.81852 15.182 0.625 10 0.625ZM10.9627 13.7215C10.9627 14.0177 10.5308 14.3138 10.0002 14.3138C9.44486 14.3138 9.05001 14.0177 9.05001 13.7215V9.0198C9.05001 8.67428 9.4449 8.43976 10.0002 8.43976C10.5308 8.43976 10.9627 8.67428 10.9627 9.0198V13.7215ZM10.0002 7.30454C9.43256 7.30454 8.98834 6.88497 8.98834 6.416C8.98834 5.94707 9.43259 5.53984 10.0002 5.53984C10.5555 5.53984 10.9998 5.94707 10.9998 6.416C10.9998 6.88497 10.5555 7.30454 10.0002 7.30454Z" fill="currentColor"/>
</g>
<defs>
<clipPath id="clip0_300_2440">
<rect width="20" height="20" fill="white"/>
</clipPath>
</defs>
</svg>
