<svg width="20" height="20" viewBox="0 0 20 20" fill="none" xmlns="http://www.w3.org/2000/svg">
<g clip-path="url(#clip0_277_2453)">
<g clip-path="url(#clip1_277_2453)">
<path d="M19.1668 9.16601H17.5001V7.49933C17.5001 7.0391 17.127 6.66602 16.6668 6.66602C16.2066 6.66602 15.8335 7.0391 15.8335 7.49933V9.16601H14.1668C13.7066 9.16601 13.3335 9.5391 13.3335 9.99933C13.3335 10.4596 13.7066 10.8326 14.1668 10.8326H15.8335V12.4993C15.8335 12.9596 16.2066 13.3326 16.6668 13.3326C17.127 13.3326 17.5001 12.9596 17.5001 12.4993V10.8326H19.1668C19.627 10.8326 20.0001 10.4596 20.0001 9.99933C20.0001 9.5391 19.627 9.16601 19.1668 9.16601Z" fill="white"/>
<path d="M7.5 10C10.2614 10 12.5 7.76142 12.5 5C12.5 2.23858 10.2614 0 7.5 0C4.73858 0 2.5 2.23858 2.5 5C2.5 7.76142 4.73858 10 7.5 10Z" fill="white"/>
<path d="M7.5 11.666C3.35977 11.6706 0.00460938 15.0258 0 19.166C0 19.6262 0.373086 19.9993 0.83332 19.9993H14.1666C14.6269 19.9993 15 19.6262 15 19.166C14.9954 15.0258 11.6402 11.6706 7.5 11.666Z" fill="white"/>
</g>
</g>
<defs>
<clipPath id="clip0_277_2453">
<rect width="20" height="20" fill="white"/>
</clipPath>
<clipPath id="clip1_277_2453">
<rect width="20" height="20" fill="white"/>
</clipPath>
</defs>
</svg>
