<svg width="24" height="24" viewBox="0 0 24 24" fill="none" xmlns="http://www.w3.org/2000/svg">
<g clip-path="url(#clip0_186_1536)">
<path d="M17.4098 3.92878C17.3645 3.78949 17.2811 3.66563 17.1691 3.57121C17.0571 3.47678 16.921 3.41555 16.776 3.39441L13.9643 2.98575L12.7064 0.437531C12.6416 0.306158 12.5414 0.195541 12.417 0.118213C12.2926 0.040884 12.1491 -6.64334e-05 12.0026 8.08987e-08C11.8561 -6.4293e-05 11.7126 0.0408865 11.5882 0.118214C11.4638 0.195542 11.3635 0.306157 11.2988 0.437531L10.0409 2.9858L7.22865 3.39445C7.0837 3.41559 6.94754 3.47682 6.83554 3.57125C6.72355 3.66568 6.64018 3.78953 6.59485 3.92883C6.54954 4.06816 6.54415 4.2174 6.57929 4.35964C6.61443 4.50188 6.68871 4.63143 6.7937 4.73363L8.82906 6.71709L8.34812 9.51759C8.32331 9.662 8.33942 9.81047 8.39461 9.94619C8.44981 10.0819 8.54189 10.1995 8.66045 10.2856C8.90274 10.4619 9.22323 10.4836 9.48746 10.3454L12.0028 9.02311L14.5176 10.3454C14.6473 10.4136 14.7935 10.4442 14.9396 10.4336C15.0858 10.423 15.2261 10.3718 15.3446 10.2856C15.4631 10.1995 15.5552 10.082 15.6104 9.94633C15.6656 9.81065 15.6817 9.66224 15.6569 9.51788L15.1764 6.71709L17.2113 4.73363C17.3161 4.63129 17.3902 4.50171 17.4253 4.3595C17.4604 4.21729 17.455 4.06811 17.4098 3.92878ZM15.1404 11.9618H8.85962C8.42603 11.9618 8.07451 12.3133 8.07451 12.7469V24H15.9255V12.7469C15.9255 12.3133 15.574 11.9618 15.1404 11.9618ZM1.00862 15.1022C0.575026 15.1022 0.223511 15.4537 0.223511 15.8873V23.3793C0.223511 23.7221 0.501433 24 0.84423 24H6.50434V15.1022H1.00862ZM22.9914 18.2426H17.4957V24H23.1558C23.4987 24 23.7766 23.7221 23.7766 23.3793V19.0277C23.7765 18.5941 23.425 18.2426 22.9914 18.2426Z" fill="currentColor"/>
</g>
<defs>
<clipPath id="clip0_186_1536">
<rect width="24" height="24" fill="white"/>
</clipPath>
</defs>
</svg>
